<svg width="71" height="69" viewBox="0 0 71 69" fill="none" xmlns="http://www.w3.org/2000/svg">
<g id="Group 10" opacity="0.8">
<path id="Oval 7" opacity="0.8" d="M55.1795 37.739C61.6008 36.4902 65.7851 30.221 64.5253 23.7364C63.2654 17.2517 57.0386 13.0073 50.6172 14.2561C44.1958 15.505 40.0115 21.7741 41.2714 28.2588C42.5312 34.7434 48.7581 38.9878 55.1795 37.739Z" stroke="#CFDAE6" stroke-width="0.941176"/>
<g id="Group 12" opacity="0.8">
<path id="Oval 7_2" opacity="0.45" d="M54.5933 34.8987C59.4582 33.9525 62.6283 29.2031 61.674 24.2907C60.7197 19.3782 56.0024 16.163 51.1376 17.1092C46.2728 18.0554 43.1027 22.8048 44.057 27.7173C45.0112 32.6297 49.7285 35.8449 54.5933 34.8987Z" fill="#BACAD9"/>
<path id="Oval 7_3" opacity="0.8" fill-rule="evenodd" clip-rule="evenodd" d="M54.5927 34.8994C59.4578 33.9531 62.6281 29.2036 61.6738 24.291C60.7194 19.3784 56.0018 16.163 51.1367 17.1093L54.5927 34.8994Z" fill="#BACAD9"/>
</g>
<path id="Path 2" opacity="0.8" d="M41.9319 20.3707L7.80176 5.38684" stroke="#CFDAE6" stroke-width="0.941176"/>
<path id="Oval" opacity="0.8" d="M5.61889 7.7729C7.49182 7.40866 8.71225 5.58015 8.34479 3.6888C7.97733 1.79746 6.16114 0.559494 4.28821 0.923735C2.41528 1.28798 1.19486 3.11649 1.56231 5.00783C1.92977 6.89918 3.74596 8.13714 5.61889 7.7729Z" stroke="#CFDAE6" stroke-width="0.941176"/>
<path id="Oval Copy" opacity="0.8" d="M16.7327 67.5554C18.338 67.2432 19.3841 65.6759 19.0691 64.0548C18.7542 62.4336 17.1975 61.3725 15.5922 61.6847C13.9869 61.9969 12.9409 63.5642 13.2558 65.1854C13.5708 66.8065 15.1274 67.8676 16.7327 67.5554Z" fill="#F7E1AD"/>
<path id="Path 10" opacity="0.8" d="M44.8291 35.4346L18.2367 62.7153" stroke="#CFDAE6" stroke-width="0.941176"/>
</g>
</svg>
